:FULLY-SPECIFIED
:FORCE-ALL-JOINTS-BE-3DOF
:DEGREES
612
root -4.66467 15.8988 -40.7714 369.696 -77.6186 358.876
lfemur -5.91066 12.5034 -14.315
ltibia 46.1263 0 0
lfoot -17.3599 29.3256 0
ltoes -27.9134 0 0
rfemur -40.3346 -21.6694 14.2986
rtibia 51.8823 0 0
rfoot -10.3113 -15.6107 0
rtoes -8.86657 0 0
lowerback 10.0258 5.18525 -5.42792
upperback -2.73334 6.10264 -0.528288
thorax -9.03573 3.22405 1.3896
lowerneck 1.91251 -11.3794 -11.849
upperneck -2.90404 -15.3827 12.0182
head 0.553685 -7.71705 5.25365
lclavicle 7.95451e-14 -2.75457e-14 0
lhumerus -78.2338 -24.8981 107.391
lradius 108.805 0 0
lwrist 51.1358 0 0
lhand -0.365589 52.8358 0
lfingers 7.12502 0 0
lthumb 25.1914 80.7194 0
rclavicle 7.95451e-14 -2.75457e-14 0
rhumerus 27.1995 41.9643 -43.0903
rradius 86.9092 0 0
rwrist -24.3912 0 0
rhand -6.39414 -28.9417 0
rfingers 7.12502 0 0
rthumb 19.3865 -67.8632 0
613
root -4.6453 15.8989 -40.7461 370.647 -78.1009 358.057
lfemur -6.15278 12.5608 -14.373
ltibia 46.8199 0 0
lfoot -17.2523 29.6159 0
ltoes -27.9608 0 0
rfemur -39.8592 -22.1126 15.0321
rtibia 52.3217 0 0
rfoot -11.0981 -16.5614 0
rtoes -9.41863 0 0
lowerback 9.78548 5.21042 -5.42585
upperback -2.8461 6.14712 -0.534276
thorax -9.02077 3.24822 1.38737
lowerneck 1.80471 -11.3378 -11.8356
upperneck -2.74976 -15.3251 12.0687
head 0.607102 -7.68572 5.25901
lclavicle 7.92386e-14 -2.66045e-14 0
lhumerus -78.6382 -25.0608 107.525
lradius 109.104 0 0
lwrist 50.7315 0 0
lhand -1.14734 52.1209 0
lfingers 7.12502 0 0
lthumb 24.4421 80.1055 0
rclavicle 7.92386e-14 -2.66045e-14 0
rhumerus 27.9079 40.4921 -42.9829
rradius 86.2418 0 0
rwrist -24.5965 0 0
rhand -7.51067 -28.8756 0
rfingers 7.12502 0 0
rthumb 18.313 -68.4284 0
614
root -4.62777 15.8983 -40.7206 371.62 -78.5791 357.213
lfemur -6.40232 12.6202 -14.4255
ltibia 47.5166 0 0
lfoot -17.1414 29.8982 0
ltoes -28.0009 0 0
rfemur -39.3793 -22.5522 15.7644
rtibia 52.7657 0 0
rfoot -11.8881 -17.5085 0
rtoes -9.96777 0 0
lowerback 9.54728 5.23411 -5.42109
upperback -2.95779 6.19013 -0.538538
thorax -9.00573 3.27155 1.38571
lowerneck 1.69477 -11.2918 -11.8196
upperneck -2.59239 -15.2616 12.1158
head 0.661231 -7.65138 5.26302
lclavicle 7.89001e-14 -2.56412e-14 0
lhumerus -79.0091 -25.2141 107.657
lradius 109.38 0 0
lwrist 50.305 0 0
lhand -1.93995 51.4012 0
lfingers 7.12502 0 0
lthumb 23.6824 79.4876 0
rclavicle 7.89001e-14 -2.56412e-14 0
rhumerus 28.5902 39.0088 -42.8897
rradius 85.5702 0 0
rwrist -24.802 0 0
rhand -8.63852 -28.8153 0
rfingers 7.12502 0 0
rthumb 17.2287 -68.9535 0
615
root -4.61222 15.8968 -40.6949 372.615 -79.0513 356.343
lfemur -6.66009 12.6814 -14.4718
ltibia 48.2144 0 0
lfoot -17.0271 30.1706 0
ltoes -28.0333 0 0
rfemur -38.8949 -22.9862 16.4931
rtibia 53.2121 0 0
rfoot -12.6792 -18.4499 0
rtoes -10.5128 0 0
lowerback 9.31209 5.25623 -5.41335
upperback -3.06803 6.23154 -0.54096
thorax -8.99065 3.29396 1.38453
lowerneck 1.58295 -11.2411 -11.8008
upperneck -2.43243 -15.1919 12.1592
head 0.715881 -7.61392 5.2656
lclavicle 7.85317e-14 -2.46573e-14 0
lhumerus -79.3418 -25.3565 107.787
lradius 109.629 0 0
lwrist 49.8545 0 0
lhand -2.74139 50.6791 0
lfingers 7.12502 0 0
lthumb 22.9141 78.8677 0
rclavicle 7.85317e-14 -2.46573e-14 0
rhumerus 29.2415 37.5196 -42.8122
rradius 84.8989 0 0
rwrist -25.0092 0 0
rhand -9.77418 -28.7622 0
rfingers 7.12502 0 0
rthumb 16.1369 -69.4331 0
616
root -4.59879 15.8947 -40.6689 373.634 -79.5153 355.444
lfemur -6.92692 12.7444 -14.5116
ltibia 48.9115 0 0
lfoot -16.909 30.4313 0
ltoes -28.0574 0 0
rfemur -38.4058 -23.4128 17.2158
rtibia 53.659 0 0
rfoot -13.4691 -19.3834 0
rtoes -11.0523 0 0
lowerback 9.08075 5.27667 -5.40229
upperback -3.17643 6.27127 -0.541428
thorax -8.97559 3.31538 1.38374
lowerneck 1.46951 -11.1856 -11.7788
upperneck -2.27041 -15.1156 12.1986
head 0.770865 -7.57322 5.26667
lclavicle 7.81355e-14 -2.36541e-14 0
lhumerus -79.6315 -25.4864 107.913
lradius 109.847 0 0
lwrist 49.3783 0 0
lhand -3.54965 49.9569 0
lfingers 7.12502 0 0
lthumb 22.1393 78.2477 0
rclavicle 7.81355e-14 -2.36541e-14 0
rhumerus 29.8569 36.0296 -42.7521
rradius 84.2324 0 0
rwrist -25.2198 0 0
rhand -10.9141 -28.7173 0
rfingers 7.12502 0 0
rthumb 15.041 -69.8616 0
617
root -4.58762 15.8918 -40.6428 374.679 -79.969 354.513
lfemur -7.20363 12.8091 -14.5443
ltibia 49.606 0 0
lfoot -16.787 30.6783 0
ltoes -28.0728 0 0
rfemur -37.912 -23.8303 17.9302
rtibia 54.1044 0 0
rfoot -14.2557 -20.3069 0
rtoes -11.5853 0 0
lowerback 8.8541 5.29534 -5.3876
upperback -3.2826 6.30918 -0.53983
thorax -8.9606 3.33573 1.38327
lowerneck 1.35471 -11.1251 -11.7536
upperneck -2.10686 -15.0326 12.2338
head 0.825992 -7.52916 5.26614
lclavicle 7.77136e-14 -2.26331e-14 0
lhumerus -79.8736 -25.6023 108.035
lradius 110.032 0 0
lwrist 48.8746 0 0
lhand -4.36269 49.2369 0
lfingers 7.12502 0 0
lthumb 21.3599 77.6297 0
rclavicle 7.77136e-14 -2.26331e-14 0
rhumerus 30.4316 34.5441 -42.711
rradius 83.5752 0 0
rwrist -25.4353 0 0
rhand -12.0548 -28.6818 0
rfingers 7.12502 0 0
rthumb 13.9443 -70.2336 0
618
root -4.57886 15.8881 -40.6163 375.751 -80.4102 353.55
lfemur -7.49103 12.8755 -14.5693
ltibia 50.296 0 0
lfoot -16.6608 30.9099 0
ltoes -28.0789 0 0
rfemur -37.4135 -24.2369 18.6338
rtibia 54.5462 0 0
rfoot -15.0369 -21.2183 0
rtoes -12.1103 0 0
lowerback 8.63299 5.31215 -5.36898
upperback -3.38615 6.3452 -0.536052
thorax -8.94572 3.35494 1.38303
lowerneck 1.23882 -11.0594 -11.7249
upperneck -1.94229 -14.9427 12.2644
head 0.881074 -7.48165 5.26395
lclavicle 7.72681e-14 -2.15955e-14 0
lhumerus -80.0634 -25.7028 108.153
lradius 110.18 0 0
lwrist 48.3416 0 0
lhand -5.1785 48.5214 0
lfingers 7.12502 0 0
lthumb 20.5778 77.0156 0
rclavicle 7.72681e-14 -2.15955e-14 0
rhumerus 30.9606 33.0681 -42.6906
rradius 82.9316 0 0
rwrist -25.6574 0 0
rhand -13.1928 -28.6569 0
rfingers 7.12502 0 0
rthumb 12.8502 -70.5435 0
619
root -4.57264 15.8837 -40.5897 376.853 -80.837 352.551
lfemur -7.78994 12.9433 -14.5863
ltibia 50.9796 0 0
lfoot -16.5302 31.1242 0
ltoes -28.0752 0 0
rfemur -36.91 -24.6308 19.3244
rtibia 54.9824 0 0
rfoot -15.8104 -22.1155 0
rtoes -12.6261 0 0
lowerback 8.41826 5.32699 -5.3461
upperback -3.4867 6.37919 -0.529981
thorax -8.93103 3.37293 1.38293
lowerneck 1.12209 -10.9884 -11.6925
upperneck -1.77724 -14.8456 12.2901
head 0.935922 -7.43055 5.26002
lclavicle 7.68012e-14 -2.05429e-14 0
lhumerus -80.1961 -25.7863 108.266
lradius 110.289 0 0
lwrist 47.7777 0 0
lhand -5.99506 47.8127 0
lfingers 7.12502 0 0
lthumb 19.7949 76.4074 0
rclavicle 7.68012e-14 -2.05429e-14 0
rhumerus 31.4391 31.6069 -42.6924
rradius 82.3062 0 0
rwrist -25.8875 0 0
rhand -14.3244 -28.6438 0
rfingers 7.12502 0 0
rthumb 11.7622 -70.7858 0
620
root -4.56912 15.8785 -40.5628 377.985 -81.2471 351.515
lfemur -8.10119 13.0125 -14.5947
ltibia 51.655 0 0
lfoot -16.3949 31.3194 0
ltoes -28.0612 0 0
rfemur -36.4015 -25.0102 19.9996
rtibia 55.411 0 0
rfoot -16.574 -22.9963 0
rtoes -13.1316 0 0
lowerback 8.21077 5.33978 -5.31864
upperback -3.58386 6.41107 -0.521504
thorax -8.91656 3.38962 1.3829
lowerneck 1.0048 -10.9118 -11.6562
upperneck -1.61221 -14.741 12.3107
head 0.990345 -7.37576 5.25426
lclavicle 7.63148e-14 -1.94765e-14 0
lhumerus -80.2671 -25.8515 108.373
lradius 110.353 0 0
lwrist 47.181 0 0
lhand -6.81035 47.1132 0
lfingers 7.12502 0 0
lthumb 19.0131 75.8071 0
rclavicle 7.63148e-14 -1.94765e-14 0
rhumerus 31.8622 30.1656 -42.7181
rradius 81.7033 0 0
rwrist -26.1274 0 0
rhand -15.4463 -28.6438 0
rfingers 7.12502 0 0
rthumb 10.6836 -70.955 0
621
root -4.56842 15.8726 -40.5356 379.149 -81.6386 350.44
lfemur -8.42559 13.0831 -14.5941
ltibia 52.3202 0 0
lfoot -16.2547 31.4934 0
ltoes -28.0363 0 0
rfemur -35.888 -25.3733 20.657
rtibia 55.83 0 0
rfoot -17.3257 -23.8585 0
rtoes -13.6254 0 0
lowerback 8.01135 5.35041 -5.2863
upperback -3.67725 6.44071 -0.510507
thorax -8.90237 3.40495 1.38284
lowerneck 0.887196 -10.8294 -11.6158
upperneck -1.44775 -14.6287 12.3259
head 1.04416 -7.31717 5.24659
lclavicle 7.58113e-14 -1.83979e-14 0
lhumerus -80.2716 -25.8966 108.473
lradius 110.372 0 0
lwrist 46.5498 0 0
lhand -7.62234 46.4251 0
lfingers 7.12502 0 0
lthumb 18.2345 75.2165 0
rclavicle 7.58113e-14 -1.83979e-14 0
rhumerus 32.2249 28.7494 -42.7694
rradius 81.1275 0 0
rwrist -26.3785 0 0
rhand -16.5548 -28.6578 0
rfingers 7.12502 0 0
rthumb 9.61773 -71.0456 0
622
root -4.57068 15.866 -40.5081 380.348 -82.0092 349.322
lfemur -8.76396 13.155 -14.5838
ltibia 52.9734 0 0
lfoot -16.1092 31.6446 0
ltoes -28.0002 0 0
rfemur -35.3694 -25.7182 21.2942
rtibia 56.2374 0 0
rfoot -18.0631 -24.7001 0
rtoes -14.1064 0 0
lowerback 7.82084 5.35879 -5.24876
upperback -3.76646 6.46802 -0.496878
thorax -8.88852 3.41882 1.38267
lowerneck 0.769551 -10.7411 -11.571
upperneck -1.28436 -14.5085 12.3353
head 1.09716 -7.25466 5.23693
lclavicle 7.52926e-14 -1.73083e-14 0
lhumerus -80.2049 -25.9204 108.567
lradius 110.34 0 0
lwrist 45.8824 0 0
lhand -8.42901 45.7508 0
lfingers 7.12502 0 0
lthumb 17.4609 74.6378 0
rclavicle 7.52926e-14 -1.73083e-14 0
rhumerus 32.5225 27.3635 -42.8478
rradius 80.5832 0 0
rwrist -26.6426 0 0
rhand -17.6465 -28.6872 0
rfingers 7.12502 0 0
rthumb 8.56807 -71.0521 0
623
root -4.57607 15.8586 -40.4804 381.582 -82.3569 348.161
lfemur -9.11712 13.228 -14.5635
ltibia 53.6128 0 0
lfoot -15.9584 31.7711 0
ltoes -27.9522 0 0
rfemur -34.8455 -26.0433 21.909
rtibia 56.6311 0 0
rfoot -18.7843 -25.5189 0
rtoes -14.5732 0 0
lowerback 7.6401 5.36483 -5.2057
upperback -3.85113 6.49289 -0.480502
thorax -8.87505 3.43118 1.38231
lowerneck 0.652124 -10.6467 -11.5217
upperneck -1.12258 -14.3801 12.3388
head 1.14918 -7.18811 5.22522
lclavicle 7.47609e-14 -1.62092e-14 0
lhumerus -80.0624 -25.9213 108.653
lradius 110.255 0 0
lwrist 45.1769 0 0
lhand -9.22835 45.0925 0
lfingers 7.12502 0 0
lthumb 16.6942 74.0729 0
rclavicle 7.47609e-14 -1.62092e-14 0
rhumerus 32.7499 26.013 -42.9549
rradius 80.0748 0 0
rwrist -26.9211 0 0
rhand -18.7179 -28.7332 0
rfingers 7.12502 0 0
rthumb 7.53797 -70.9689 0
